<svg xmlns="http://www.w3.org/2000/svg" width="1500" height="1120" viewBox="0 0 1500 1120">

  <defs>
    <style>
      .title { font: 700 28px "PingFang SC", "Microsoft YaHei", Arial, sans-serif; fill: #111111; }
      .subtitle { font: 15px "PingFang SC", "Microsoft YaHei", Arial, sans-serif; fill: #555555; }
      .actor { font: 700 18px "PingFang SC", "Microsoft YaHei", Arial, sans-serif; fill: #111111; }
      .text { font: 16px "PingFang SC", "Microsoft YaHei", Arial, sans-serif; fill: #111111; }
      .small { font: 14px "PingFang SC", "Microsoft YaHei", Arial, sans-serif; fill: #222222; }
      .table-title { font: 700 18px "Times New Roman", "PingFang SC", serif; fill: #111111; }
      .field { font: 14px "Times New Roman", Consolas, monospace; fill: #111111; }
      .frame { fill: #ffffff; stroke: #111111; stroke-width: 2; }
      .thin { fill: #ffffff; stroke: #111111; stroke-width: 1.7; }
      .line { stroke: #111111; stroke-width: 2; fill: none; }
      .line-thin { stroke: #111111; stroke-width: 1.5; fill: none; }
    </style>
    <marker id="arrow" markerWidth="10" markerHeight="10" refX="8" refY="3" orient="auto" markerUnits="strokeWidth">
      <path d="M0,0 L0,6 L9,3 z" fill="#111111" />
    </marker>
  </defs>

  <rect width="1500" height="1120" fill="#ffffff"/>
  <text x="750.0" y="38" text-anchor="middle" class="title">图4.5 数据库 E-R 图</text>
  
<rect x="70" y="90" width="250" height="190" class="frame"/><line x1="70" y1="132" x2="320" y2="132" class="line-thin"/><text x="195.0" y="118" text-anchor="middle" class="table-title">USERS</text><text x="86" y="160" class="field">PK  id : int</text><text x="86" y="182" class="field">UK  username : string</text><text x="86" y="204" class="field">password_hash : string</text><text x="86" y="226" class="field">name : string</text><text x="86" y="248" class="field">email : string</text><text x="86" y="270" class="field">role : string</text><rect x="410" y="90" width="280" height="220" class="frame"/><line x1="410" y1="132" x2="690" y2="132" class="line-thin"/><text x="550.0" y="118" text-anchor="middle" class="table-title">COURSES</text><text x="426" y="160" class="field">PK  id : int</text><text x="426" y="182" class="field">name : string</text><text x="426" y="204" class="field">UK  code : string</text><text x="426" y="226" class="field">description : text</text><text x="426" y="248" class="field">semester : string</text><text x="426" y="270" class="field">FK  teacher_id : int</text><text x="426" y="292" class="field">is_active : boolean</text><rect x="790" y="90" width="240" height="170" class="frame"/><line x1="790" y1="132" x2="1030" y2="132" class="line-thin"/><text x="910.0" y="118" text-anchor="middle" class="table-title">CLASSES</text><text x="806" y="160" class="field">PK  id : int</text><text x="806" y="182" class="field">name : string</text><text x="806" y="204" class="field">FK  course_id : int</text><text x="806" y="226" class="field">student_count : int</text><text x="806" y="248" class="field">created_at : datetime</text><rect x="1120" y="90" width="270" height="170" class="frame"/><line x1="1120" y1="132" x2="1390" y2="132" class="line-thin"/><text x="1255.0" y="118" text-anchor="middle" class="table-title">STUDENTS</text><text x="1136" y="160" class="field">PK  id : int</text><text x="1136" y="182" class="field">UK  student_no : string</text><text x="1136" y="204" class="field">name : string</text><text x="1136" y="226" class="field">gender : string</text><text x="1136" y="248" class="field">FK  class_id : int</text><rect x="80" y="430" width="280" height="190" class="frame"/><line x1="80" y1="472" x2="360" y2="472" class="line-thin"/><text x="220.0" y="458" text-anchor="middle" class="table-title">ATTENDANCES</text><text x="96" y="500" class="field">PK  id : int</text><text x="96" y="522" class="field">FK  student_id : int</text><text x="96" y="544" class="field">date : date</text><text x="96" y="566" class="field">status : string</text><text x="96" y="588" class="field">FK  course_id : int</text><text x="96" y="610" class="field">remark : string</text><rect x="410" y="430" width="300" height="230" class="frame"/><line x1="410" y1="472" x2="710" y2="472" class="line-thin"/><text x="560.0" y="458" text-anchor="middle" class="table-title">HOMEWORKS</text><text x="426" y="500" class="field">PK  id : int</text><text x="426" y="522" class="field">FK  student_id : int</text><text x="426" y="544" class="field">title : string</text><text x="426" y="566" class="field">score : float</text><text x="426" y="588" class="field">max_score : float</text><text x="426" y="610" class="field">submit_time : datetime</text><text x="426" y="632" class="field">status : string</text><text x="426" y="654" class="field">FK  course_id : int</text><rect x="770" y="430" width="270" height="210" class="frame"/><line x1="770" y1="472" x2="1040" y2="472" class="line-thin"/><text x="905.0" y="458" text-anchor="middle" class="table-title">QUIZZES</text><text x="786" y="500" class="field">PK  id : int</text><text x="786" y="522" class="field">FK  student_id : int</text><text x="786" y="544" class="field">title : string</text><text x="786" y="566" class="field">score : float</text><text x="786" y="588" class="field">max_score : float</text><text x="786" y="610" class="field">duration : int</text><text x="786" y="632" class="field">FK  course_id : int</text><rect x="1100" y="430" width="300" height="190" class="frame"/><line x1="1100" y1="472" x2="1400" y2="472" class="line-thin"/><text x="1250.0" y="458" text-anchor="middle" class="table-title">INTERACTIONS</text><text x="1116" y="500" class="field">PK  id : int</text><text x="1116" y="522" class="field">FK  student_id : int</text><text x="1116" y="544" class="field">type : string</text><text x="1116" y="566" class="field">count : int</text><text x="1116" y="588" class="field">date : date</text><text x="1116" y="610" class="field">FK  course_id : int</text><rect x="520" y="800" width="420" height="250" class="frame"/><line x1="520" y1="842" x2="940" y2="842" class="line-thin"/><text x="730.0" y="828" text-anchor="middle" class="table-title">WARNINGS</text><text x="536" y="870" class="field">PK  id : int</text><text x="536" y="892" class="field">FK  student_id : int</text><text x="536" y="914" class="field">FK  course_id : int</text><text x="536" y="936" class="field">type : string</text><text x="536" y="958" class="field">level : string</text><text x="536" y="980" class="field">reason : text</text><text x="536" y="1002" class="field">metrics : json</text><text x="536" y="1024" class="field">suggestion : text</text><text x="536" y="1046" class="field">status : string</text><text x="536" y="1068" class="field">FK  handled_by : int</text><line x1="320" y1="180" x2="410" y2="180" class="line"/><text x="365" y="168" text-anchor="middle" class="small">1 : N</text><line x1="690" y1="170" x2="790" y2="170" class="line"/><text x="740" y="158" text-anchor="middle" class="small">1 : N</text><line x1="1030" y1="170" x2="1120" y2="170" class="line"/><text x="1075" y="158" text-anchor="middle" class="small">1 : N</text><line x1="1255" y1="260" x2="1255" y2="390" class="line"/><line x1="1255" y1="390" x2="220" y2="390" class="line"/><line x1="220" y1="390" x2="220" y2="430" class="line"/><text x="730" y="378" text-anchor="middle" class="small">STUDENTS 1 : N ATTENDANCES</text><line x1="1255" y1="260" x2="1255" y2="370" class="line"/><line x1="1255" y1="370" x2="560" y2="370" class="line"/><line x1="560" y1="370" x2="560" y2="430" class="line"/><text x="930" y="358" text-anchor="middle" class="small">STUDENTS 1 : N HOMEWORKS</text><line x1="1255" y1="260" x2="1255" y2="350" class="line"/><line x1="1255" y1="350" x2="905" y2="350" class="line"/><line x1="905" y1="350" x2="905" y2="430" class="line"/><text x="1090" y="338" text-anchor="middle" class="small">STUDENTS 1 : N QUIZZES</text><line x1="1255" y1="260" x2="1255" y2="430" class="line"/><text x="1272" y="350" class="small">1 : N</text><line x1="1255" y1="260" x2="1255" y2="760" class="line"/><line x1="1255" y1="760" x2="940" y2="760" class="line"/><text x="1100" y="748" text-anchor="middle" class="small">STUDENTS 1 : N WARNINGS</text><line x1="550" y1="310" x2="550" y2="430" class="line"/><line x1="550" y1="310" x2="220" y2="310" class="line"/><line x1="220" y1="310" x2="220" y2="430" class="line"/><line x1="550" y1="310" x2="905" y2="310" class="line"/><line x1="905" y1="310" x2="905" y2="430" class="line"/><line x1="550" y1="310" x2="1250" y2="310" class="line"/><line x1="1250" y1="310" x2="1250" y2="430" class="line"/><line x1="195" y1="280" x2="720" y2="800" class="line"/><text x="420" y="560" class="small">USERS 1 : N WARNINGS.handled_by</text>
</svg>